<svg width="1440" height="900" viewBox="0 0 1440 900" fill="none" xmlns="http://www.w3.org/2000/svg">
<mask id="mask0_30_53" style="mask-type:alpha" maskUnits="userSpaceOnUse" x="0" y="0" width="1440" height="900">
<rect width="1440" height="900" fill="#D9D9D9"/>
</mask>
<g mask="url(#mask0_30_53)">
<g filter="url(#filter0_f_30_53)">
<circle cx="720" cy="-76" r="443" fill="#3296F0"/>
</g>
<g filter="url(#filter1_f_30_53)">
<circle cx="742.5" cy="-140.5" r="287.5" fill="#F7ADC1"/>
</g>
<g filter="url(#filter2_f_30_53)">
<path d="M660 -111L445 198.5L730 -75L660 -111Z" fill="black" fill-opacity="0.7"/>
</g>
<g filter="url(#filter3_f_30_53)">
<path d="M846 -111L631 198.5L916 -75L846 -111Z" fill="black" fill-opacity="0.7"/>
</g>
<g filter="url(#filter4_f_30_53)">
<path d="M1027 -111L812 198.5L1097 -75L1027 -111Z" fill="black" fill-opacity="0.7"/>
</g>
<path d="M559.308 84.1629H515.869V127.602H559.308V84.1629Z" fill="url(#paint0_linear_30_53)" fill-opacity="0.02"/>
<path d="M516.955 338.281H473.516V381.719H516.955V338.281Z" fill="url(#paint1_linear_30_53)" fill-opacity="0.02"/>
<path d="M940.484 126.516H897.045V169.955H940.484V126.516Z" fill="url(#paint2_linear_30_53)" fill-opacity="0.02"/>
<path d="M389.353 0H347V42.3529M389.353 0V42.3529M389.353 0H431.706M389.353 42.3529H347M389.353 42.3529H431.706M389.353 42.3529V84.7059M347 42.3529V84.7059M431.706 0V42.3529M431.706 0H474.059M431.706 42.3529H474.059M431.706 42.3529V84.7059M474.059 0V42.3529M474.059 0H516.412M474.059 42.3529H516.412M474.059 42.3529V84.7059M516.412 0V42.3529M516.412 0H558.765M516.412 42.3529H558.765M516.412 42.3529V84.7059M558.765 0V42.3529M558.765 0H601.118M558.765 42.3529H601.118M558.765 42.3529V84.7059M601.118 0V42.3529M601.118 0H643.471M601.118 42.3529H643.471M601.118 42.3529V84.7059M643.471 0V42.3529M643.471 0H685.824M643.471 42.3529H685.824M643.471 42.3529V84.7059M685.824 0V42.3529M685.824 0H728.176M685.824 42.3529H728.176M685.824 42.3529V84.7059M728.176 0V42.3529M728.176 0H770.529M728.176 42.3529H770.529M728.176 42.3529V84.7059M770.529 0V42.3529M770.529 0H812.882M770.529 42.3529H812.882M770.529 42.3529V84.7059M812.882 0V42.3529M812.882 0H855.235M812.882 42.3529H855.235M812.882 42.3529V84.7059M855.235 0V42.3529M855.235 0H897.588M855.235 42.3529H897.588M855.235 42.3529V84.7059M897.588 0V42.3529M897.588 0H939.941M897.588 42.3529H939.941M897.588 42.3529V84.7059M939.941 0V42.3529M939.941 0H982.294M939.941 42.3529H982.294M939.941 42.3529V84.7059M982.294 0V42.3529M982.294 0H1024.65M982.294 42.3529H1024.65M982.294 42.3529V84.7059M1024.65 0V42.3529M1024.65 0H1067V42.3529M1024.65 42.3529H1067M1024.65 42.3529V84.7059M1067 42.3529V84.7059M389.353 84.7059H347M389.353 84.7059H431.706M389.353 84.7059V127.059M347 84.7059V127.059M431.706 84.7059H474.059M431.706 84.7059V127.059M474.059 84.7059H516.412M474.059 84.7059V127.059M516.412 84.7059H558.765M516.412 84.7059V127.059M558.765 84.7059H601.118M558.765 84.7059V127.059M601.118 84.7059H643.471M601.118 84.7059V127.059M643.471 84.7059H685.824M643.471 84.7059V127.059M685.824 84.7059H728.176M685.824 84.7059V127.059M728.176 84.7059H770.529M728.176 84.7059V127.059M770.529 84.7059H812.882M770.529 84.7059V127.059M812.882 84.7059H855.235M812.882 84.7059V127.059M855.235 84.7059H897.588M855.235 84.7059V127.059M897.588 84.7059H939.941M897.588 84.7059V127.059M939.941 84.7059H982.294M939.941 84.7059V127.059M982.294 84.7059H1024.65M982.294 84.7059V127.059M1024.65 84.7059H1067M1024.65 84.7059V127.059M1067 84.7059V127.059M389.353 127.059H347M389.353 127.059H431.706M389.353 127.059V169.412M347 127.059V169.412M431.706 127.059H474.059M431.706 127.059V169.412M474.059 127.059H516.412M474.059 127.059V169.412M516.412 127.059H558.765M516.412 127.059V169.412M558.765 127.059H601.118M558.765 127.059V169.412M601.118 127.059H643.471M601.118 127.059V169.412M643.471 127.059H685.824M643.471 127.059V169.412M685.824 127.059H728.176M685.824 127.059V169.412M728.176 127.059H770.529M728.176 127.059V169.412M770.529 127.059H812.882M770.529 127.059V169.412M812.882 127.059H855.235M812.882 127.059V169.412M855.235 127.059H897.588M855.235 127.059V169.412M897.588 127.059H939.941M897.588 127.059V169.412M939.941 127.059H982.294M939.941 127.059V169.412M982.294 127.059H1024.65M982.294 127.059V169.412M1024.65 127.059H1067M1024.65 127.059V169.412M1067 127.059V169.412M389.353 169.412H347M389.353 169.412H431.706M389.353 169.412V211.765M347 169.412V211.765M431.706 169.412H474.059M431.706 169.412V211.765M474.059 169.412H516.412M474.059 169.412V211.765M516.412 169.412H558.765M516.412 169.412V211.765M558.765 169.412H601.118M558.765 169.412V211.765M601.118 169.412H643.471M601.118 169.412V211.765M643.471 169.412H685.824M643.471 169.412V211.765M685.824 169.412H728.176M685.824 169.412V211.765M728.176 169.412H770.529M728.176 169.412V211.765M770.529 169.412H812.882M770.529 169.412V211.765M812.882 169.412H855.235M812.882 169.412V211.765M855.235 169.412H897.588M855.235 169.412V211.765M897.588 169.412H939.941M897.588 169.412V211.765M939.941 169.412H982.294M939.941 169.412V211.765M982.294 169.412H1024.65M982.294 169.412V211.765M1024.65 169.412H1067M1024.65 169.412V211.765M1067 169.412V211.765M389.353 211.765H347M389.353 211.765H431.706M389.353 211.765V254.118M347 211.765V254.118M431.706 211.765H474.059M431.706 211.765V254.118M474.059 211.765H516.412M474.059 211.765V254.118M516.412 211.765H558.765M516.412 211.765V254.118M558.765 211.765H601.118M558.765 211.765V254.118M601.118 211.765H643.471M601.118 211.765V254.118M643.471 211.765H685.824M643.471 211.765V254.118M685.824 211.765H728.176M685.824 211.765V254.118M728.176 211.765H770.529M728.176 211.765V254.118M770.529 211.765H812.882M770.529 211.765V254.118M812.882 211.765H855.235M812.882 211.765V254.118M855.235 211.765H897.588M855.235 211.765V254.118M897.588 211.765H939.941M897.588 211.765V254.118M939.941 211.765H982.294M939.941 211.765V254.118M982.294 211.765H1024.65M982.294 211.765V254.118M1024.65 211.765H1067M1024.65 211.765V254.118M1067 211.765V254.118M389.353 254.118H347M389.353 254.118H431.706M389.353 254.118V296.471M347 254.118V296.471M431.706 254.118H474.059M431.706 254.118V296.471M474.059 254.118H516.412M474.059 254.118V296.471M516.412 254.118H558.765M516.412 254.118V296.471M558.765 254.118H601.118M558.765 254.118V296.471M601.118 254.118H643.471M601.118 254.118V296.471M643.471 254.118H685.824M643.471 254.118V296.471M685.824 254.118H728.176M685.824 254.118V296.471M728.176 254.118H770.529M728.176 254.118V296.471M770.529 254.118H812.882M770.529 254.118V296.471M812.882 254.118H855.235M812.882 254.118V296.471M855.235 254.118H897.588M855.235 254.118V296.471M897.588 254.118H939.941M897.588 254.118V296.471M939.941 254.118H982.294M939.941 254.118V296.471M982.294 254.118H1024.65M982.294 254.118V296.471M1024.65 254.118H1067M1024.65 254.118V296.471M1067 254.118V296.471M389.353 296.471H347M389.353 296.471H431.706M389.353 296.471V338.824M347 296.471V338.824M431.706 296.471H474.059M431.706 296.471V338.824M474.059 296.471H516.412M474.059 296.471V338.824M516.412 296.471H558.765M516.412 296.471V338.824M558.765 296.471H601.118M558.765 296.471V338.824M601.118 296.471H643.471M601.118 296.471V338.824M643.471 296.471H685.824M643.471 296.471V338.824M685.824 296.471H728.176M685.824 296.471V338.824M728.176 296.471H770.529M728.176 296.471V338.824M770.529 296.471H812.882M770.529 296.471V338.824M812.882 296.471H855.235M812.882 296.471V338.824M855.235 296.471H897.588M855.235 296.471V338.824M897.588 296.471H939.941M897.588 296.471V338.824M939.941 296.471H982.294M939.941 296.471V338.824M982.294 296.471H1024.65M982.294 296.471V338.824M1024.65 296.471H1067M1024.65 296.471V338.824M1067 296.471V338.824M389.353 338.824H347M389.353 338.824H431.706M389.353 338.824V381.176M347 338.824V381.176M431.706 338.824H474.059M431.706 338.824V381.176M474.059 338.824H516.412M474.059 338.824V381.176M516.412 338.824H558.765M516.412 338.824V381.176M558.765 338.824H601.118M558.765 338.824V381.176M601.118 338.824H643.471M601.118 338.824V381.176M643.471 338.824H685.824M643.471 338.824V381.176M685.824 338.824H728.176M685.824 338.824V381.176M728.176 338.824H770.529M728.176 338.824V381.176M770.529 338.824H812.882M770.529 338.824V381.176M812.882 338.824H855.235M812.882 338.824V381.176M855.235 338.824H897.588M855.235 338.824V381.176M897.588 338.824H939.941M897.588 338.824V381.176M939.941 338.824H982.294M939.941 338.824V381.176M982.294 338.824H1024.65M982.294 338.824V381.176M1024.65 338.824H1067M1024.65 338.824V381.176M1067 338.824V381.176M389.353 381.176H347M389.353 381.176H431.706M389.353 381.176V423.529M347 381.176V423.529M431.706 381.176H474.059M431.706 381.176V423.529M474.059 381.176H516.412M474.059 381.176V423.529M516.412 381.176H558.765M516.412 381.176V423.529M558.765 381.176H601.118M558.765 381.176V423.529M601.118 381.176H643.471M601.118 381.176V423.529M643.471 381.176H685.824M643.471 381.176V423.529M685.824 381.176H728.176M685.824 381.176V423.529M728.176 381.176H770.529M728.176 381.176V423.529M770.529 381.176H812.882M770.529 381.176V423.529M812.882 381.176H855.235M812.882 381.176V423.529M855.235 381.176H897.588M855.235 381.176V423.529M897.588 381.176H939.941M897.588 381.176V423.529M939.941 381.176H982.294M939.941 381.176V423.529M982.294 381.176H1024.65M982.294 381.176V423.529M1024.65 381.176H1067M1024.65 381.176V423.529M1067 381.176V423.529M389.353 423.529H347M389.353 423.529H431.706M389.353 423.529V465.882M347 423.529V465.882M431.706 423.529H474.059M431.706 423.529V465.882M474.059 423.529H516.412M474.059 423.529V465.882M516.412 423.529H558.765M516.412 423.529V465.882M558.765 423.529H601.118M558.765 423.529V465.882M601.118 423.529H643.471M601.118 423.529V465.882M643.471 423.529H685.824M643.471 423.529V465.882M685.824 423.529H728.176M685.824 423.529V465.882M728.176 423.529H770.529M728.176 423.529V465.882M770.529 423.529H812.882M770.529 423.529V465.882M812.882 423.529H855.235M812.882 423.529V465.882M855.235 423.529H897.588M855.235 423.529V465.882M897.588 423.529H939.941M897.588 423.529V465.882M939.941 423.529H982.294M939.941 423.529V465.882M982.294 423.529H1024.65M982.294 423.529V465.882M1024.65 423.529H1067M1024.65 423.529V465.882M1067 423.529V465.882M389.353 465.882H347M389.353 465.882H431.706M389.353 465.882V508.235M347 465.882V508.235H389.353M431.706 465.882H474.059M431.706 465.882V508.235M474.059 465.882H516.412M474.059 465.882V508.235M516.412 465.882H558.765M516.412 465.882V508.235M558.765 465.882H601.118M558.765 465.882V508.235M601.118 465.882H643.471M601.118 465.882V508.235M643.471 465.882H685.824M643.471 465.882V508.235M685.824 465.882H728.176M685.824 465.882V508.235M728.176 465.882H770.529M728.176 465.882V508.235M770.529 465.882H812.882M770.529 465.882V508.235M812.882 465.882H855.235M812.882 465.882V508.235M855.235 465.882H897.588M855.235 465.882V508.235M897.588 465.882H939.941M897.588 465.882V508.235M939.941 465.882H982.294M939.941 465.882V508.235M982.294 465.882H1024.65M982.294 465.882V508.235M1024.65 465.882H1067M1024.65 465.882V508.235M1067 465.882V508.235H1024.65M389.353 508.235H431.706M431.706 508.235H474.059M474.059 508.235H516.412M516.412 508.235H558.765M558.765 508.235H601.118M601.118 508.235H643.471M643.471 508.235H685.824M685.824 508.235H728.176M728.176 508.235H770.529M770.529 508.235H812.882M812.882 508.235H855.235M855.235 508.235H897.588M897.588 508.235H939.941M939.941 508.235H982.294M982.294 508.235H1024.65" stroke="url(#paint3_radial_30_53)" stroke-opacity="0.08" stroke-width="1.08597"/>
</g>
<defs>
<filter id="filter0_f_30_53" x="-223" y="-1019" width="1886" height="1886" filterUnits="userSpaceOnUse" color-interpolation-filters="sRGB">
<feFlood flood-opacity="0" result="BackgroundImageFix"/>
<feBlend mode="normal" in="SourceGraphic" in2="BackgroundImageFix" result="shape"/>
<feGaussianBlur stdDeviation="250" result="effect1_foregroundBlur_30_53"/>
</filter>
<filter id="filter1_f_30_53" x="205" y="-678" width="1075" height="1075" filterUnits="userSpaceOnUse" color-interpolation-filters="sRGB">
<feFlood flood-opacity="0" result="BackgroundImageFix"/>
<feBlend mode="normal" in="SourceGraphic" in2="BackgroundImageFix" result="shape"/>
<feGaussianBlur stdDeviation="125" result="effect1_foregroundBlur_30_53"/>
</filter>
<filter id="filter2_f_30_53" x="341" y="-215" width="493" height="517.5" filterUnits="userSpaceOnUse" color-interpolation-filters="sRGB">
<feFlood flood-opacity="0" result="BackgroundImageFix"/>
<feBlend mode="normal" in="SourceGraphic" in2="BackgroundImageFix" result="shape"/>
<feGaussianBlur stdDeviation="52" result="effect1_foregroundBlur_30_53"/>
</filter>
<filter id="filter3_f_30_53" x="527" y="-215" width="493" height="517.5" filterUnits="userSpaceOnUse" color-interpolation-filters="sRGB">
<feFlood flood-opacity="0" result="BackgroundImageFix"/>
<feBlend mode="normal" in="SourceGraphic" in2="BackgroundImageFix" result="shape"/>
<feGaussianBlur stdDeviation="52" result="effect1_foregroundBlur_30_53"/>
</filter>
<filter id="filter4_f_30_53" x="708" y="-215" width="493" height="517.5" filterUnits="userSpaceOnUse" color-interpolation-filters="sRGB">
<feFlood flood-opacity="0" result="BackgroundImageFix"/>
<feBlend mode="normal" in="SourceGraphic" in2="BackgroundImageFix" result="shape"/>
<feGaussianBlur stdDeviation="52" result="effect1_foregroundBlur_30_53"/>
</filter>
<linearGradient id="paint0_linear_30_53" x1="537.588" y1="84.1629" x2="537.588" y2="127.602" gradientUnits="userSpaceOnUse">
<stop stop-color="white" stop-opacity="0"/>
<stop offset="1" stop-color="white"/>
</linearGradient>
<linearGradient id="paint1_linear_30_53" x1="495.235" y1="338.281" x2="495.235" y2="381.719" gradientUnits="userSpaceOnUse">
<stop stop-color="white" stop-opacity="0"/>
<stop offset="1" stop-color="white"/>
</linearGradient>
<linearGradient id="paint2_linear_30_53" x1="918.765" y1="126.516" x2="918.765" y2="169.955" gradientUnits="userSpaceOnUse">
<stop stop-color="white" stop-opacity="0"/>
<stop offset="1" stop-color="white"/>
</linearGradient>
<radialGradient id="paint3_radial_30_53" cx="0" cy="0" r="1" gradientUnits="userSpaceOnUse" gradientTransform="translate(707 267.692) rotate(90) scale(240 360.543)">
<stop stop-color="white"/>
<stop offset="1" stop-color="white" stop-opacity="0"/>
</radialGradient>
</defs>
</svg>
